<svg width="72" height="72" viewBox="0 0 72 72" fill="none" xmlns="http://www.w3.org/2000/svg">
<g filter="url(#filter0_d_31_35)">
<path d="M42.6855 47.6269C42.0137 47.9728 41.2017 48.3674 40.2496 48.8105C39.2974 49.2537 38.3067 49.6222 37.2776 49.9162C36.2858 50.1909 35.367 50.2865 34.521 50.203C33.7123 50.1002 33.1253 49.6945 32.76 48.9859C32.5292 48.5384 32.4009 48.0145 32.3748 47.4144C32.3395 46.0637 32.3665 44.4215 32.4557 42.4877C32.5448 40.5538 32.6798 38.5256 32.8605 36.4031C33.022 34.2432 33.2032 32.1674 33.4044 30.1759C33.6235 28.128 33.8648 26.3517 34.1282 24.8474C34.4096 23.2865 34.6775 22.1574 34.9319 21.46C35.0235 21.2713 35.153 21.1102 35.3204 20.9768C35.4877 20.8434 35.646 20.7383 35.7953 20.6614C35.9819 20.5653 36.3093 20.4675 36.7775 20.368C37.283 20.2493 37.6127 20.3391 37.7665 20.6374C37.8242 20.7494 37.8169 20.9183 37.7445 21.1444C37.2313 23.7214 36.7657 26.3447 36.3475 29.0144C35.9101 31.6467 35.4727 34.279 35.0353 36.9114C34.8285 38.4338 34.603 39.9659 34.359 41.5075C34.1148 43.0492 33.9272 44.609 33.7963 46.1868C33.7273 46.6943 33.789 47.1345 33.9812 47.5074C34.2312 47.9923 34.695 48.2963 35.3724 48.4194C36.0679 48.486 37.0501 48.1926 38.319 47.5392C40.0356 46.6551 41.9168 45.4032 43.9625 43.7834C46.0454 42.1443 48.06 40.2809 50.0061 38.1933C51.9523 36.1055 53.6433 33.8895 55.0794 31.5452C56.5528 29.1818 57.5567 26.824 58.0915 24.4719C58.6634 22.1006 58.5609 19.8408 57.7837 17.6922C57.7633 17.5611 57.7242 17.4397 57.6666 17.3277C57.6089 17.2159 57.5512 17.104 57.4935 16.9921C56.609 15.2765 55.3654 14.147 53.7628 13.6035C52.141 13.0227 50.3739 12.8472 48.4615 13.0768C46.5672 13.2499 44.7131 13.6383 42.8991 14.2421C41.0852 14.8458 39.5251 15.484 38.219 16.1566C36.0545 17.2713 34.0806 18.6182 32.2972 20.1973C30.5513 21.7571 28.4203 21.3544 26.7139 23.0828C26.624 23.3525 25.1255 24.7348 25.5444 25.735C24.99 25.4584 25.731 25.6389 25.5444 25.735C25.0966 25.9656 25.449 26.013 25.0712 25.8299C24.6935 25.6469 24.7215 25.9655 24.5099 25.5552C24.5099 24.9305 25.6344 24.2563 25.6344 23.1727C26.4895 22.4534 26.3096 22.287 26.3096 21.46C26.6816 21.174 26.8032 20.5013 27.1187 20.1973C28.8659 18.7312 29.9486 17.7489 31.7727 16.4319C33.6341 15.0958 35.5537 13.9184 37.5316 12.8999C39.2109 12.0351 40.9955 11.3285 42.8852 10.7802C44.8122 10.2126 46.7337 9.9547 48.6495 10.0065C50.6026 10.0391 52.4393 10.5328 54.1595 11.4877C56.5788 12.7906 58.3941 14.6168 59.6055 16.9664C61.0093 19.689 61.5039 22.5259 61.089 25.4769C60.7117 28.4088 59.7874 31.1503 58.3163 33.7014C57.25 35.5721 55.8547 37.3997 54.1302 39.1845C52.4238 40.9129 50.5562 42.5118 48.5274 43.9813C46.5361 45.4316 44.5887 46.6468 42.6855 47.6269Z" fill="white"/>
</g>
<g filter="url(#filter1_d_31_35)">
<path d="M15.3779 61.5677C15.2286 61.6446 15.1155 61.6084 15.0386 61.4592C14.8847 61.1608 14.8937 60.3538 15.0655 59.0383C15.2745 57.7034 15.5747 56.133 15.9658 54.3268C16.3942 52.5014 16.8227 50.6761 17.2511 48.8507C17.7168 47.0061 18.1384 45.3966 18.5161 44.0222C18.9118 42.5913 19.1633 41.6594 19.2707 41.2265C18.4327 41.7996 17.5212 42.505 16.5363 43.3426C15.5887 44.161 14.736 45.072 13.9785 46.0758C13.2582 47.0603 12.8483 48.0973 12.7489 49.1869C12.6618 49.7509 12.7529 50.2939 13.0222 50.8161C13.2914 51.3382 13.6143 51.6439 13.9909 51.7331C14.4048 51.8031 14.6598 51.9314 14.756 52.1179C14.7945 52.1925 14.7018 52.2874 14.4779 52.4027C13.7688 52.7679 13.0076 52.7114 12.1945 52.2334C11.3994 51.6989 10.8384 51.1146 10.5115 50.4806C10.3 50.0704 10.1636 49.6686 10.1025 49.2753C9.85917 47.7959 10.0491 46.4237 10.6721 45.1589C11.2759 43.8568 12.1534 42.6734 13.3045 41.6086C14.4365 40.5065 15.6453 39.5536 16.9311 38.7499C18.2542 37.9269 19.4755 37.2271 20.5951 36.6507C21.4622 33.8442 22.3949 31.0275 23.3932 28.2007C24.3915 25.3739 25.598 22.6759 27.0126 20.1067C27.527 19.1811 28.1642 18.3101 28.9241 17.494C29.684 16.6779 30.5491 16.02 31.5194 15.5204C32.5643 14.9823 33.6133 14.7725 34.6662 14.891C35.7191 15.0096 36.5435 15.647 37.1396 16.8031C37.582 17.6609 37.819 18.6244 37.8508 19.6936C37.9006 20.7063 37.8843 21.6823 37.8018 22.6216C37.7522 23.1663 37.6793 24.1241 37.5833 25.4952C37.5247 26.8469 37.4405 28.4241 37.3311 30.2269C37.2216 32.0296 37.1318 33.9165 37.0619 35.8877C36.9728 37.8215 36.9108 39.6706 36.8759 41.4349C36.8591 43.1427 36.8864 44.6154 36.9578 45.853C37.0099 47.0532 37.1322 47.8399 37.3245 48.2128C37.3822 48.3248 37.4489 48.4084 37.5247 48.4638C37.1922 48.9182 36.7274 49.2991 36.1304 49.6066C35.4213 49.9717 34.8677 49.9972 34.4696 49.683C34.1088 49.3496 33.7649 48.8659 33.438 48.2319C33.1496 47.6725 32.9521 46.8774 32.8457 45.8466C32.7574 44.7593 32.7154 43.6246 32.7198 42.4424C32.7423 41.2036 32.775 40.0305 32.8178 38.9228C32.8981 37.796 32.9618 36.8663 33.0093 36.134C32.5558 35.8955 31.9354 35.8374 31.1483 35.9596C30.3792 36.0252 29.5271 36.2044 28.5919 36.4972C27.6939 36.7709 26.8526 37.0625 26.0678 37.3722C25.2829 37.682 24.6853 37.9426 24.2748 38.1541C23.6776 38.4615 23.0902 38.7876 22.5123 39.1324C21.9344 39.4772 21.3662 39.8406 20.8075 40.2227C20.1586 42.4448 19.5476 44.6946 18.9745 46.9721C18.4013 49.2495 17.875 51.5265 17.3958 53.8028C17.146 54.8754 16.9153 55.9853 16.704 57.1325C16.4926 58.2797 16.2434 59.3992 15.9563 60.4911C15.9019 60.6606 15.8387 60.8584 15.7663 61.0845C15.6939 61.3105 15.5645 61.4716 15.3779 61.5677ZM33.0821 35.176C33.1126 34.594 33.1583 33.7209 33.2192 32.5567C33.2983 31.3361 33.3762 30.0216 33.4529 28.6133C33.5478 27.1486 33.615 25.7216 33.6544 24.3325C33.6746 22.9062 33.6688 21.6584 33.637 20.5892C33.6233 19.4635 33.5577 18.6949 33.44 18.2835C33.242 17.4416 32.8524 17.0523 32.271 17.1156C31.6898 17.179 31.2126 17.3067 30.8393 17.4989C30.2422 17.8064 29.666 18.2919 29.1109 18.9554C28.5557 19.6189 28.122 20.2434 27.8099 20.8288C26.5808 23.2082 25.5034 25.6981 24.5774 28.2989C23.6322 30.8624 22.7809 33.4247 22.0234 35.9859C22.6397 35.7157 23.4528 35.415 24.4627 35.0837C25.4907 34.6959 26.5667 34.4014 27.6909 34.2001C28.8331 33.9423 29.8837 33.8732 30.8427 33.993C31.8391 34.0935 32.5855 34.4878 33.0821 35.176Z" fill="white"/>
</g>
<defs>
<filter id="filter0_d_31_35" x="14.5099" y="0" width="56.7211" height="60.2322" filterUnits="userSpaceOnUse" color-interpolation-filters="sRGB">
<feFlood flood-opacity="0" result="BackgroundImageFix"/>
<feColorMatrix in="SourceAlpha" type="matrix" values="0 0 0 0 0 0 0 0 0 0 0 0 0 0 0 0 0 0 127 0" result="hardAlpha"/>
<feOffset/>
<feGaussianBlur stdDeviation="5"/>
<feComposite in2="hardAlpha" operator="out"/>
<feColorMatrix type="matrix" values="0 0 0 0 0.278431 0 0 0 0 0.843137 0 0 0 0 0.858824 0 0 0 0.5 0"/>
<feBlend mode="normal" in2="BackgroundImageFix" result="effect1_dropShadow_31_35"/>
<feBlend mode="normal" in="SourceGraphic" in2="effect1_dropShadow_31_35" result="shape"/>
</filter>
<filter id="filter1_d_31_35" x="0" y="4.85892" width="47.8789" height="66.748" filterUnits="userSpaceOnUse" color-interpolation-filters="sRGB">
<feFlood flood-opacity="0" result="BackgroundImageFix"/>
<feColorMatrix in="SourceAlpha" type="matrix" values="0 0 0 0 0 0 0 0 0 0 0 0 0 0 0 0 0 0 127 0" result="hardAlpha"/>
<feOffset/>
<feGaussianBlur stdDeviation="5"/>
<feComposite in2="hardAlpha" operator="out"/>
<feColorMatrix type="matrix" values="0 0 0 0 0.278431 0 0 0 0 0.843137 0 0 0 0 0.858824 0 0 0 0.5 0"/>
<feBlend mode="normal" in2="BackgroundImageFix" result="effect1_dropShadow_31_35"/>
<feBlend mode="normal" in="SourceGraphic" in2="effect1_dropShadow_31_35" result="shape"/>
</filter>
</defs>
</svg>
