<svg width="386" height="343" viewBox="0 0 386 343" fill="none" xmlns="http://www.w3.org/2000/svg">
<path d="M163.42 283C178.816 309.667 217.306 309.667 232.703 283L291.592 181L337.721 101.102C355.413 70.4593 327.531 33.6243 293.235 42.3327L207.906 64.0002C201.446 65.6407 194.677 65.6407 188.217 64.0002L102.887 42.3327C68.5923 33.6243 40.71 70.4593 58.4018 101.102L163.42 283Z" fill="#119886"/>
<path d="M152.42 264C167.816 290.667 206.306 290.667 221.703 264L280.592 162L326.721 82.1023C344.413 51.4593 316.531 14.6243 282.235 23.3327L196.906 45.0002C190.446 46.6407 183.677 46.6407 177.217 45.0002L91.8875 23.3327C57.5923 14.6243 29.71 51.4593 47.4018 82.1023L152.42 264Z" fill="#17D4BB"/>
</svg>
