<svg width="394" height="335" viewBox="0 0 394 335" fill="none" xmlns="http://www.w3.org/2000/svg">
<path d="M128.18 233.014C147.285 266.106 197.475 256.132 202.477 218.25L211.395 150.708C212.782 140.201 218.283 130.674 226.688 124.219L280.723 82.7249C311.028 59.4523 294.571 11 256.36 11L69.282 11C38.49 11 19.245 44.3333 34.641 71L128.18 233.014Z" fill="#119886"/>
<path d="M147.18 222.014C166.285 255.106 216.475 245.132 221.477 207.25L230.395 139.708C231.782 129.201 237.283 119.674 245.688 113.219L299.723 71.7249C330.028 48.4523 313.571 0 275.36 0L88.282 0C57.49 0 38.245 33.3333 53.641 60L147.18 222.014Z" fill="#17D4BB"/>
</svg>
