<svg width="394" height="335" viewBox="0 0 394 335" fill="none" xmlns="http://www.w3.org/2000/svg">
<path d="M245.943 222.014C226.838 255.106 176.648 245.132 171.646 207.25L162.728 139.708C161.341 129.201 155.84 119.674 147.435 113.219L93.4004 71.7249C63.0948 48.4523 79.5525 0 117.763 0L304.841 0C335.633 0 354.878 33.3333 339.482 60L245.943 222.014Z" fill="#119886"/>
<path d="M264.943 233.014C245.838 266.106 195.648 256.132 190.646 218.25L181.728 150.708C180.341 140.201 174.84 130.674 166.435 124.219L112.4 82.7249C82.0948 59.4523 98.5525 11 136.763 11L323.841 11C354.633 11 373.878 44.3333 358.482 71L264.943 233.014Z" fill="#17D4BB"/>
</svg>
