<svg width="79" height="75" viewBox="0 0 79 75" fill="none" xmlns="http://www.w3.org/2000/svg">
<path d="M39.5 43.6667C39.5 46.9819 40.817 50.1613 43.1612 52.5055C45.5054 54.8497 48.6848 56.1667 52 56.1667C55.3152 56.1667 58.4946 54.8497 60.8388 52.5055C63.183 50.1613 64.5 46.9819 64.5 43.6667C64.5 40.3515 63.183 37.172 60.8388 34.8278C58.4946 32.4836 55.3152 31.1667 52 31.1667C48.6848 31.1667 45.5054 32.4836 43.1612 34.8278C40.817 37.172 39.5 40.3515 39.5 43.6667Z" stroke="white" stroke-width="4" stroke-linecap="round" stroke-linejoin="round"/>
<path d="M43.6667 54.0833V72.8333L52 66.5833L60.3334 72.8333V54.0833" stroke="white" stroke-width="4" stroke-linecap="round" stroke-linejoin="round"/>
<path d="M31.1667 60.3333H10.3333C8.1232 60.3333 6.00358 59.4554 4.44078 57.8926C2.87797 56.3297 2 54.2101 2 52V10.3333C2 5.75 5.75 2 10.3333 2H68.6667C70.8768 2 72.9964 2.87797 74.5592 4.44078C76.122 6.00358 77 8.1232 77 10.3333V52C76.9985 53.4614 76.6127 54.8966 75.8814 56.1618C75.1501 57.427 74.0989 58.4777 72.8333 59.2083M14.5 18.6667H64.5M14.5 31.1667H27M14.5 43.6667H22.8333" stroke="white" stroke-width="4" stroke-linecap="round" stroke-linejoin="round"/>
</svg>
