<svg width="165" height="165" viewBox="0 0 165 165" fill="none" xmlns="http://www.w3.org/2000/svg">
<g clip-path="url(#clip0_71_2)">
<g filter="url(#filter0_di_71_2)">
<path d="M70.3396 10.966C73.3104 -1.25454 90.6896 -1.25454 93.6604 10.966L94.0907 12.7362C96.2003 21.4139 106.711 24.8291 113.518 19.0486L114.907 17.8694C124.494 9.72902 138.554 19.9443 133.774 31.5771L133.082 33.2621C129.688 41.5225 136.184 50.4636 145.089 49.7883L146.905 49.6506C159.446 48.6996 164.816 65.2282 154.112 71.83L152.561 72.7862C144.96 77.4741 144.96 88.5259 152.561 93.2138L154.112 94.17C164.816 100.772 159.446 117.3 146.905 116.349L145.089 116.212C136.184 115.536 129.688 124.477 133.082 132.738L133.774 134.423C138.554 146.056 124.494 156.271 114.907 148.131L113.518 146.951C106.711 141.171 96.2003 144.586 94.0907 153.264L93.6604 155.034C90.6896 167.255 73.3104 167.255 70.3396 155.034L69.9093 153.264C67.7997 144.586 57.2889 141.171 50.4815 146.951L49.0929 148.131C39.5065 156.271 25.4464 146.056 30.226 134.423L30.9183 132.738C34.3123 124.477 27.8163 115.536 18.9114 116.212L17.0948 116.349C4.55443 117.3 -0.816063 100.772 9.88832 94.17L11.4389 93.2138C19.04 88.5259 19.04 77.4741 11.4389 72.7862L9.88832 71.83C-0.816059 65.2282 4.55442 48.6996 17.0948 49.6506L18.9113 49.7883C27.8163 50.4636 34.3123 41.5225 30.9183 33.2621L30.226 31.5771C25.4464 19.9443 39.5065 9.72901 49.0929 17.8694L50.4815 19.0486C57.2888 24.8291 67.7997 21.4139 69.9093 12.7362L70.3396 10.966Z" fill="url(#paint0_radial_71_2)" shape-rendering="crispEdges"/>
</g>
</g>
<defs>
<filter id="filter0_di_71_2" x="-5.8427" y="-8.1994" width="175.685" height="182.399" filterUnits="userSpaceOnUse" color-interpolation-filters="sRGB">
<feFlood flood-opacity="0" result="BackgroundImageFix"/>
<feColorMatrix in="SourceAlpha" type="matrix" values="0 0 0 0 0 0 0 0 0 0 0 0 0 0 0 0 0 0 127 0" result="hardAlpha"/>
<feOffset/>
<feGaussianBlur stdDeviation="5"/>
<feComposite in2="hardAlpha" operator="out"/>
<feColorMatrix type="matrix" values="0 0 0 0 1 0 0 0 0 1 0 0 0 0 1 0 0 0 0.1 0"/>
<feBlend mode="normal" in2="BackgroundImageFix" result="effect1_dropShadow_71_2"/>
<feBlend mode="normal" in="SourceGraphic" in2="effect1_dropShadow_71_2" result="shape"/>
<feColorMatrix in="SourceAlpha" type="matrix" values="0 0 0 0 0 0 0 0 0 0 0 0 0 0 0 0 0 0 127 0" result="hardAlpha"/>
<feOffset/>
<feGaussianBlur stdDeviation="5"/>
<feComposite in2="hardAlpha" operator="arithmetic" k2="-1" k3="1"/>
<feColorMatrix type="matrix" values="0 0 0 0 1 0 0 0 0 1 0 0 0 0 1 0 0 0 0.1 0"/>
<feBlend mode="normal" in2="shape" result="effect2_innerShadow_71_2"/>
</filter>
<radialGradient id="paint0_radial_71_2" cx="0" cy="0" r="1" gradientUnits="userSpaceOnUse" gradientTransform="translate(82 83) rotate(90) scale(120)">
<stop offset="0.45" stop-color="white" stop-opacity="0"/>
<stop offset="0.4501" stop-color="white"/>
</radialGradient>
<clipPath id="clip0_71_2">
<rect width="165" height="165" fill="white"/>
</clipPath>
</defs>
</svg>
