<svg width="140" height="138" viewBox="0 0 140 138" fill="none" xmlns="http://www.w3.org/2000/svg">
<path d="M58.5031 9.44306C61.9171 -1.97256 78.0829 -1.97257 81.4969 9.44305L81.7957 10.4424C84.0989 18.1437 93.1749 21.4472 99.8896 17.028L100.761 16.4546C110.714 9.9042 123.098 20.2954 118.375 31.2347L117.962 32.1923C114.776 39.5724 119.605 47.9369 127.589 48.8677L128.625 48.9885C140.46 50.3683 143.268 66.2885 132.618 71.633L131.686 72.1008C124.501 75.7063 122.824 85.2181 128.342 91.0634L129.058 91.8219C137.238 100.486 129.155 114.486 117.561 111.735L116.547 111.494C108.725 109.638 101.327 115.847 101.796 123.871L101.857 124.912C102.554 136.807 87.3626 142.336 80.2502 132.777L79.6276 131.94C74.8292 125.491 65.1708 125.491 60.3724 131.94L59.7498 132.777C52.6374 142.336 37.4465 136.807 38.1428 124.912L38.2037 123.871C38.6734 115.847 31.2746 109.638 23.4534 111.494L22.4386 111.735C10.8454 114.486 2.76245 100.486 10.9417 91.8219L11.6577 91.0634C17.1757 85.2181 15.4985 75.7063 8.31406 72.1008L7.38184 71.633C-3.26752 66.2885 -0.460366 50.3683 11.3747 48.9885L12.4107 48.8677C20.395 47.9369 25.2243 39.5724 22.0382 32.1923L21.6248 31.2347C16.9023 20.2954 29.286 9.90419 39.2391 16.4546L40.1103 17.028C46.8251 21.4471 55.9011 18.1438 58.2043 10.4424L58.5031 9.44306Z" fill="url(#paint0_radial_70_2)"/>
<defs>
<radialGradient id="paint0_radial_70_2" cx="0" cy="0" r="1" gradientUnits="userSpaceOnUse" gradientTransform="translate(70 71) rotate(90) scale(100)">
<stop offset="0.4" stop-color="#67FFD4" stop-opacity="0"/>
<stop offset="0.401487" stop-color="#67FFD4"/>
</radialGradient>
</defs>
</svg>
