<svg width="99" height="89" viewBox="0 0 99 89" fill="none" xmlns="http://www.w3.org/2000/svg">
<path d="M49.3571 2L96.7143 22.5239L49.3571 43.0404L2 22.5239L49.3571 2Z" stroke="white" stroke-width="4" stroke-linejoin="round"/>
<path d="M23.4929 31.886L23.5366 54.2094C23.5366 54.2094 31.3541 64.5551 49.3571 64.5551C67.3601 64.5551 75.2214 54.2094 75.2214 54.2094L75.2141 31.886M10.7064 69.2763V26.3634M10.7064 69.2763C13.0174 69.2763 15.2411 70.1943 16.8752 71.8285C18.5094 73.4626 19.4274 75.679 19.4274 77.99C19.4274 80.301 18.5094 82.5174 16.8752 84.1515C15.2411 85.7857 13.0247 86.7037 10.7137 86.7037C8.40269 86.7037 6.18633 85.7857 4.55219 84.1515C2.91805 82.5174 2 80.301 2 77.99C2 75.679 2.91805 73.4626 4.55219 71.8285C6.18633 70.1943 8.39541 69.2763 10.7064 69.2763Z" stroke="white" stroke-width="4" stroke-linecap="round" stroke-linejoin="round"/>
</svg>
