<svg width="100" height="100" viewBox="0 0 100 100" fill="none" xmlns="http://www.w3.org/2000/svg">
<circle cx="50" cy="50" r="48" stroke="white" stroke-width="4"/>
<path d="M59.3842 65.943C58.4925 66.4021 57.4148 66.9259 56.151 67.5141C54.887 68.1023 53.5721 68.5914 52.2061 68.9816C50.8898 69.3463 49.6702 69.4732 48.5473 69.3623C47.4739 69.2259 46.6948 68.6874 46.2099 67.7469C45.9036 67.1528 45.7332 66.4575 45.6986 65.6609C45.6517 63.8682 45.6876 61.6885 45.8059 59.1216C45.9242 56.5547 46.1033 53.8627 46.3432 51.0453C46.5576 48.1785 46.7982 45.4233 47.0652 42.78C47.356 40.0617 47.6763 37.704 48.0259 35.7073C48.3994 33.6354 48.755 32.1367 49.0927 31.2111C49.2143 30.9606 49.3861 30.7467 49.6083 30.5698C49.8304 30.3927 50.0406 30.2532 50.2387 30.1512C50.4863 30.0236 50.9209 29.8938 51.5423 29.7616C52.2133 29.6041 52.6509 29.7233 52.8551 30.1193C52.9316 30.2679 52.922 30.4921 52.826 30.7922C52.1447 34.2127 51.5267 37.6947 50.9716 41.2382C50.391 44.7321 49.8105 48.2261 49.2299 51.7201C48.9554 53.7408 48.6561 55.7744 48.3322 57.8206C48.0081 59.8669 47.7592 61.9373 47.5853 64.0316C47.4937 64.7051 47.5756 65.2895 47.8308 65.7844C48.1626 66.428 48.7782 66.8315 49.6773 66.9948C50.6006 67.0833 51.9043 66.6939 53.5884 65.8266C55.8669 64.6532 58.3638 62.9915 61.0791 60.8414C63.8439 58.6659 66.5179 56.1926 69.101 53.4215C71.6842 50.6504 73.9288 47.709 75.8349 44.5974C77.7905 41.4604 79.1231 38.3309 79.8329 35.2089C80.592 32.0614 80.4559 29.0619 79.4244 26.2101C79.3973 26.0361 79.3454 25.8748 79.2689 25.7263C79.1924 25.5778 79.1158 25.4293 79.0392 25.2808C77.8651 23.0036 76.2145 21.5044 74.0873 20.783C71.9347 20.0121 69.5892 19.7791 67.0508 20.0839C64.5365 20.3137 62.0755 20.8292 59.6677 21.6306C57.26 22.432 55.1894 23.279 53.4557 24.1718C50.5827 25.6513 50.5103 25.9549 47.192 27.2822C43.8737 27.9459 40.4497 31.071 38.1848 33.365C37.9008 33.9188 36.0764 35.5578 36.6325 36.8854C36.8801 36.7578 35.8966 36.5183 36.6325 36.8854C36.0381 37.1915 36.5058 37.2544 36.0044 37.0114C35.503 36.7684 35.5402 37.1913 35.2593 36.6467C35.2593 35.8176 36.7519 34.9227 36.7519 33.4844C37.887 32.5297 37.6481 32.3088 37.6481 31.2111C38.1419 30.8315 38.3033 29.9386 38.7221 29.535C41.0411 27.5891 42.4783 26.2852 44.8994 24.5372C47.37 22.7637 49.918 21.201 52.5433 19.8491C54.7723 18.7012 57.141 17.7634 59.6492 17.0355C62.2071 16.2822 64.7575 15.9399 67.3004 16.0086C69.8927 16.0519 72.3306 16.7072 74.6139 17.9746C77.825 19.704 80.2345 22.128 81.8425 25.2467C83.7058 28.8604 84.3622 32.6259 83.8116 36.5429C83.3107 40.4345 82.0839 44.0733 80.1312 47.4594C78.716 49.9424 76.8639 52.3683 74.575 54.7373C72.3101 57.0313 69.8312 59.1536 67.1383 61.1041C64.4951 63.0292 61.9103 64.6421 59.3842 65.943Z" fill="white"/>
<path d="M23.1382 84.447C22.94 84.549 22.7899 84.5009 22.6878 84.3029C22.4836 83.9069 22.4956 82.8357 22.7235 81.0895C23.001 79.3178 23.3994 77.2333 23.9185 74.8359C24.4872 72.413 25.0559 69.9902 25.6245 67.5674C26.2427 65.119 26.8023 62.9827 27.3036 61.1584C27.8288 59.2592 28.1626 58.0222 28.3052 57.4476C27.1929 58.2083 25.9831 59.1446 24.6758 60.2563C23.418 61.3426 22.2862 62.5518 21.2807 63.8842C20.3246 65.1909 19.7806 66.5674 19.6487 68.0136C19.5331 68.7622 19.654 69.4829 20.0114 70.176C20.3687 70.8691 20.7974 71.2748 21.2972 71.3932C21.8466 71.4862 22.1851 71.6565 22.3128 71.904C22.3639 72.003 22.2408 72.129 21.9435 72.282C21.0024 72.7667 19.9921 72.6918 18.9128 72.0573C17.8574 71.3479 17.1128 70.5723 16.6789 69.7308C16.3982 69.1863 16.2171 68.653 16.1361 68.1309C15.8131 66.1673 16.0651 64.346 16.892 62.6672C17.6935 60.9389 18.8582 59.3681 20.3861 57.9547C21.8886 56.4919 23.4931 55.2271 25.1998 54.1603C26.956 53.0679 28.5771 52.1391 30.0631 51.374C31.2141 47.6489 32.4521 43.9103 33.7771 40.1582C35.1022 36.4061 36.7036 32.825 38.5811 29.4149C39.264 28.1862 40.1098 27.0302 41.1184 25.9469C42.127 24.8637 43.2753 23.9904 44.5632 23.3273C45.9501 22.6131 47.3424 22.3346 48.7399 22.492C50.1375 22.6494 51.2318 23.4953 52.023 25.0299C52.6101 26.1685 52.9248 27.4474 52.9669 28.8665C53.0331 30.2107 53.0115 31.5062 52.902 32.7528C52.8361 33.4759 52.7393 34.7473 52.6119 36.5671C52.5341 38.3613 52.4224 40.4547 52.2771 42.8476C52.1318 45.2404 52.0126 47.7449 51.9199 50.3613C51.8015 52.9281 51.7192 55.3824 51.6729 57.7242C51.6507 59.991 51.6869 61.9457 51.7817 63.5885C51.8508 65.1816 52.0131 66.2257 52.2684 66.7207C52.3449 66.8693 52.4335 66.9803 52.5341 67.0538C52.0928 67.6569 51.4759 68.1625 50.6834 68.5706C49.7422 69.0552 49.0074 69.0891 48.479 68.6721C48.0001 68.2296 47.5437 67.5876 47.1098 66.746C46.727 66.0035 46.4649 64.9481 46.3236 63.58C46.2063 62.1368 46.1507 60.6307 46.1565 59.0614C46.1864 57.4173 46.2297 55.8601 46.2866 54.3899C46.3931 52.8942 46.4778 51.6603 46.5407 50.6882C45.9388 50.3717 45.1153 50.2945 44.0706 50.4567C43.0498 50.5438 41.9188 50.7816 40.6774 51.1703C39.4855 51.5335 38.3688 51.9206 37.3271 52.3317C36.2853 52.743 35.4921 53.0888 34.9472 53.3695C34.1546 53.7776 33.3749 54.2104 32.6078 54.6681C31.8408 55.1257 31.0865 55.608 30.345 56.1152C29.4837 59.0647 28.6727 62.0509 27.912 65.0738C27.1512 68.0968 26.4527 71.119 25.8166 74.1404C25.485 75.564 25.1789 77.0373 24.8984 78.56C24.6178 80.0827 24.287 81.5687 23.9059 83.018C23.8338 83.2429 23.7498 83.5054 23.6537 83.8056C23.5577 84.1056 23.3859 84.3194 23.1382 84.447ZM46.6374 49.4167C46.6779 48.6441 46.7385 47.4853 46.8194 45.94C46.9243 44.3198 47.0277 42.5751 47.1296 40.7058C47.2555 38.7616 47.3447 36.8676 47.397 35.0239C47.4238 33.1307 47.4161 31.4744 47.3739 30.0553C47.3558 28.5611 47.2686 27.541 47.1124 26.9949C46.8496 25.8773 46.3324 25.3606 45.5608 25.4446C44.7893 25.5288 44.1559 25.6983 43.6605 25.9535C42.868 26.3616 42.1032 27.006 41.3663 27.8867C40.6293 28.7673 40.0537 29.5962 39.6394 30.3733C38.0081 33.5315 36.578 36.8364 35.3489 40.2885C34.0943 43.6911 32.9643 47.0921 31.9589 50.4916C32.777 50.133 33.8562 49.7339 35.1967 49.2941C36.5611 48.7794 37.9893 48.3885 39.4815 48.1213C40.9976 47.7791 42.3921 47.6874 43.665 47.8464C44.9876 47.9798 45.9783 48.5032 46.6374 49.4167Z" fill="white"/>
</svg>
