<svg width="21" height="20" viewBox="0 0 21 20" fill="none" xmlns="http://www.w3.org/2000/svg">
<path fill-rule="evenodd" clip-rule="evenodd" d="M11.1098 19.4298L11.0985 19.4318L11.0257 19.4677L11.0052 19.4718L10.9908 19.4677L10.918 19.4318C10.9071 19.4284 10.8989 19.4301 10.8934 19.437L10.8893 19.4472L10.8719 19.8862L10.877 19.9067L10.8873 19.92L10.9939 19.9959L11.0093 20L11.0216 19.9959L11.1283 19.92L11.1406 19.9036L11.1447 19.8862L11.1272 19.4483C11.1245 19.4373 11.1187 19.4312 11.1098 19.4298ZM11.3816 19.3139L11.3682 19.316L11.1785 19.4113L11.1683 19.4216L11.1652 19.4329L11.1836 19.8739L11.1888 19.8862L11.197 19.8933L11.4031 19.9887C11.4161 19.9921 11.426 19.9894 11.4329 19.9805L11.437 19.9662L11.4021 19.3365C11.3987 19.3242 11.3918 19.3166 11.3816 19.3139ZM10.6483 19.316C10.6438 19.3132 10.6384 19.3123 10.6332 19.3135C10.6281 19.3146 10.6235 19.3177 10.6206 19.3221L10.6145 19.3365L10.5796 19.9662C10.5803 19.9785 10.5861 19.9867 10.597 19.9908L10.6124 19.9887L10.8185 19.8933L10.8288 19.8851L10.8329 19.8739L10.8503 19.4329L10.8473 19.4206L10.837 19.4103L10.6483 19.316Z" fill="white"/>
<path fill-rule="evenodd" clip-rule="evenodd" d="M18.4775 0.120468C18.7309 0.0138 19.0083 -0.022989 19.2808 0.0139295C19.5533 0.050848 19.8109 0.160125 20.0268 0.330386C20.2427 0.500647 20.409 0.725667 20.5085 0.982026C20.6079 1.23839 20.6368 1.51671 20.5922 1.78804L18.2662 15.8967C18.0406 17.2576 16.5474 18.0381 15.2992 17.3602C14.2552 16.7931 12.7046 15.9193 11.3098 15.0076C10.6124 14.5512 8.47617 13.0898 8.73872 12.0498C8.96434 11.1607 12.5538 7.81938 14.6049 5.83286C15.41 5.05241 15.0429 4.60218 14.0922 5.32008C11.7313 7.10251 7.94083 9.81307 6.68759 10.5761C5.58203 11.2489 5.00566 11.3637 4.31648 11.2489C3.05914 11.0396 1.89308 10.7156 0.941353 10.3207C-0.344704 9.78743 -0.282145 8.01936 0.940327 7.50453L18.4775 0.120468Z" fill="white"/>
</svg>
